<svg id="visual" viewBox="0 0 512 512" width="512" height="512" xmlns="http://www.w3.org/2000/svg" xmlns:xlink="http://www.w3.org/1999/xlink" version="1.1">
	<defs>
		<clipPath id="kreisMaske">
			<circle cx="256" cy="256" r="256" />
		</clipPath>
	</defs>
	<circle cx="256" cy="256" r="256" fill="#1a1a1a"></circle>
	<path d="M0 330L10.7 331.2C21.3 332.3 42.7 334.7 64 333.7C85.3 332.7 106.7 328.3 128 302C149.3 275.7 170.7 227.3 192 241.7C213.3 256 234.7 333 256 307.3C277.3 281.7 298.7 153.3 320 159C341.3 164.7 362.7 304.3 384 340.2C405.3 376 426.7 308 448 302.2C469.3 296.3 490.7 352.7 601 340" clip-path="url(#kreisMaske)" fill="none" stroke-linecap="round" stroke-linejoin="miter" stroke="#C06EF3" stroke-width="50"></path>
</svg>